<?xml version="1.0" encoding="UTF-8" standalone="no"?>
<svg width="196px" height="101px" viewBox="0 0 196 101" version="1.1" xmlns="http://www.w3.org/2000/svg" xmlns:xlink="http://www.w3.org/1999/xlink">
    <!-- Generator: Sketch 40.1 (33804) - http://www.bohemiancoding.com/sketch -->
    <title>Binocular icon</title>
    <desc>Created with Sketch.</desc>
    <defs></defs>
    <g id="Welcome" stroke="none" stroke-width="1" fill="none" fill-rule="evenodd">
        <g id="Desktop-HD" transform="translate(-622.000000, -5195.000000)" stroke-width="2" stroke="#00B4F1">
            <g id="Contact-content" transform="translate(358.000000, 5196.000000)">
                <g id="Binocular-icon" transform="translate(265.000000, 0.000000)">
                    <g id="Group-7">
                        <path d="M24.7915042,44.3581543 C24.7915042,44.3581543 15.8349111,46.71604 14.4291992,61.0893555 C12.8803711,76.9260254 24.1137518,85.6645508 33.9423836,86.2563477" id="Line" stroke-linecap="round"></path>
                        <ellipse id="Oval-4" cx="36.5" cy="63" rx="29.5" ry="30"></ellipse>
                        <path d="M36.9999983,98.7885742 C54.9497054,98.7885742 73,83.6583934 73,63.5 C73,43.3416066 56.882251,27 37,27 C17.117749,27 -0.327928535,37.7719673 1.17041016,62.2563477 C2.43041997,82.8461914 19.0502913,98.7885742 36.9999983,98.7885742 Z" id="Oval-4"></path>
                        <path d="M39.5,99 C60.7629629,99 76.1142578,76.8427734 76.1142578,54.6689453 C76.1142578,32.4951172 60.7629629,20.2988281 39.5,20.2988281 C18.2370371,20.2988281 0.719726562,37.5580241 0.719726562,59.6494141 C0.719726562,81.7408041 18.2370371,99 39.5,99 Z" id="Oval-4"></path>
                        <path d="M14.7374268,29.34021 C14.7374268,29.34021 15.0831981,29.0569424 15.5149781,28.7032135 L47.5,2.5" id="Line" stroke-linecap="square"></path>
                        <path d="M48.7733765,1.855896 C48.7733765,1.855896 71.1375732,-4.32653803 76.5301514,12.7906496" id="Line" stroke-linecap="square"></path>
                        <path d="M45,5.53920734 C45,5.53920734 71.1155396,2.08099368 76.5081177,19.1981813" id="Line-Copy-2" stroke-linecap="square"></path>
                        <path d="M76.7773438,22.5400391 L76.7773438,14.3681641" id="Line-Copy" stroke-linecap="square" transform="translate(76.777344, 18.454102) scale(-1, 1) translate(-76.777344, -18.454102) "></path>
                    </g>
                    <g id="Group-7" transform="translate(155.000000, 49.500000) scale(-1, 1) translate(-155.000000, -49.500000) translate(116.000000, 0.000000)">
                        <path d="M24.7915042,44.3581543 C24.7915042,44.3581543 15.8349111,46.71604 14.4291992,61.0893555 C12.8803711,76.9260254 24.1137518,85.6645508 33.9423836,86.2563477" id="Line" stroke-linecap="round"></path>
                        <ellipse id="Oval-4" cx="36.5" cy="63" rx="29.5" ry="30"></ellipse>
                        <path d="M36.9999983,98.7885742 C54.9497054,98.7885742 73,83.6583934 73,63.5 C73,43.3416066 56.882251,27 37,27 C17.117749,27 -0.327928535,37.7719673 1.17041016,62.2563477 C2.43041997,82.8461914 19.0502913,98.7885742 36.9999983,98.7885742 Z" id="Oval-4"></path>
                        <path d="M39.5,99 C60.7629629,99 76.1142578,76.8427734 76.1142578,54.6689453 C76.1142578,32.4951172 60.7629629,20.2988281 39.5,20.2988281 C18.2370371,20.2988281 0.719726562,37.5580241 0.719726562,59.6494141 C0.719726562,81.7408041 18.2370371,99 39.5,99 Z" id="Oval-4"></path>
                        <path d="M14.7374268,29.34021 C14.7374268,29.34021 15.0831981,29.0569424 15.5149781,28.7032135 L47.5,2.5" id="Line" stroke-linecap="square"></path>
                        <path d="M48.7733765,1.855896 C48.7733765,1.855896 71.1375732,-4.32653803 76.5301514,12.7906496" id="Line" stroke-linecap="square"></path>
                        <path d="M45,5.53920734 C45,5.53920734 71.1155396,2.08099368 76.5081177,19.1981813" id="Line-Copy-2" stroke-linecap="square"></path>
                        <path d="M76.7773438,22.5400391 L76.7773438,14.3681641" id="Line-Copy" stroke-linecap="square" transform="translate(76.777344, 18.454102) scale(-1, 1) translate(-76.777344, -18.454102) "></path>
                    </g>
                    <g id="Group-8" transform="translate(61.000000, 15.000000)">
                        <circle id="Oval-5" cx="36" cy="15" r="7"></circle>
                        <path d="M0.458007812,10.932373 C8.92956543,12.3724976 20.5271594,7.8131747 26.1184082,3.54077148 C28.9468994,1.37945558 31.7318539,0.482543978 36.6162109,0.482543942" id="Line"></path>
                        <path d="M35.4884033,11.215332 C43.9599609,12.6554565 54.849425,7.8131747 60.4406738,3.54077148 C63.269165,1.37945558 66.0541196,0.482543978 70.9384766,0.482543942" id="Line" transform="translate(53.213440, 5.978447) scale(-1, 1) translate(-53.213440, -5.978447) "></path>
                        <path d="M15.4321289,37.1130371 C15.4321289,37.1130371 25.25,25.9763184 36,25.9763184 C46.75,25.9763184 57.0253906,37.1130371 57.0253906,37.1130371" id="Line" stroke-linecap="square"></path>
                    </g>
                </g>
            </g>
        </g>
    </g>
</svg>