<?xml version="1.0" encoding="UTF-8"?>
<svg width="18px" height="18px" viewBox="0 0 18 18" version="1.1" xmlns="http://www.w3.org/2000/svg" xmlns:xlink="http://www.w3.org/1999/xlink">
    <!-- Generator: Sketch 40.3 (33839) - http://www.bohemiancoding.com/sketch -->
    <title>Shape</title>
    <desc>Created with Sketch.</desc>
    <defs></defs>
    <g id="Welcome" stroke="none" stroke-width="1" fill="none" fill-rule="evenodd">
        <g id="Desktop-HD" transform="translate(-921.000000, -6203.000000)" fill="#FFFFFF">
            <g id="Footer" transform="translate(0.000000, 6052.000000)">
                <g id="Group" transform="translate(815.000000, 145.000000)">
                    <g id="f09b" transform="translate(100.000000, 0.000000)">
                        <path d="M23.635845,15.4094717 C23.635845,17.2939222 23.085909,18.988776 21.9860206,20.4940838 C20.8861322,21.9993919 19.465308,23.0410794 17.7235053,23.6191777 C17.5207954,23.6567165 17.3725191,23.6304399 17.2786721,23.5403465 C17.1848249,23.4502534 17.137902,23.3376383 17.137902,23.2024985 L17.137902,20.8263012 C17.137902,20.0980473 16.9427029,19.5650036 16.5522988,19.227154 C16.9802417,19.1821075 17.3650093,19.1145384 17.7066127,19.0244451 C18.0482164,18.934352 18.4010762,18.7879525 18.7652032,18.5852428 C19.1293299,18.3825331 19.4333903,18.1329033 19.6773926,17.8363464 C19.9213952,17.5397895 20.1203483,17.1456376 20.2742576,16.6538785 C20.4281668,16.1621194 20.5051202,15.5971684 20.5051202,14.9590078 C20.5051202,14.0505677 20.2085678,13.2772788 19.615454,12.6391182 C19.8932415,11.9559113 19.8632108,11.1901302 19.5253612,10.3417521 C19.3151435,10.274182 19.0110834,10.3154742 18.6131715,10.4656296 C18.2152596,10.615785 17.8699076,10.7809534 17.5771043,10.96114 L17.1491637,11.2314183 C16.450941,11.0362164 15.7302059,10.9386168 14.9869365,10.9386168 C14.2436673,10.9386168 13.5229322,11.0362164 12.8247095,11.2314183 C12.7045852,11.148833 12.5450475,11.0474795 12.3460914,10.9273551 C12.1471356,10.8072308 11.8336909,10.6627083 11.405748,10.4937836 C10.9778051,10.3248588 10.6549758,10.274182 10.4372504,10.3417521 C10.1069086,11.1901302 10.0806317,11.9559113 10.3584192,12.6391182 C9.76530536,13.2772788 9.46875274,14.0505677 9.46875274,14.9590078 C9.46875274,15.5971684 9.54570637,16.1602426 9.69961564,16.6482478 C9.85352491,17.1362528 10.0506009,17.5304047 10.2908496,17.8307157 C10.5310983,18.1310265 10.8332814,18.3825331 11.1974084,18.5852428 C11.5615351,18.7879525 11.9143951,18.934352 12.2559986,19.0244451 C12.5976023,19.1145384 12.9823696,19.1821075 13.4103125,19.227154 C13.1100018,19.4974338 12.9260642,19.8840782 12.8584942,20.3870987 C12.700831,20.4621765 12.5319088,20.5184839 12.3517223,20.5560227 C12.1715357,20.5935615 11.9575676,20.6123306 11.7098111,20.6123306 C11.4620547,20.6123306 11.2161788,20.5316234 10.9721764,20.3702063 C10.7281738,20.2087893 10.5198362,19.9741748 10.3471575,19.6663563 C10.2045099,19.4261078 10.0224492,19.2309086 9.80097011,19.0807532 C9.57949077,18.9305979 9.39367618,18.8405058 9.24352079,18.8104748 L9.01828884,18.7766901 C8.86062569,18.7766901 8.75176473,18.7935822 8.69170242,18.8273671 C8.63164036,18.8611522 8.61287122,18.9043212 8.63539449,18.9568755 C8.65791776,19.0094301 8.69170217,19.0619836 8.73674896,19.1145379 C8.7817955,19.1670925 8.83059517,19.2121382 8.88314972,19.2496773 L8.96198091,19.3059852 C9.12715182,19.3810628 9.29044339,19.5237084 9.45186042,19.7339258 C9.61327744,19.9441435 9.73152298,20.1355888 9.8066008,20.3082675 L9.9192169,20.5672843 C10.0168177,20.8525796 10.1819864,21.08344 10.4147271,21.2598728 C10.6474681,21.4363053 10.8989746,21.5489202 11.1692544,21.5977206 C11.4395342,21.6465213 11.7004251,21.6727979 11.9519354,21.6765518 C12.2034458,21.6803057 12.4117834,21.6671672 12.5769543,21.6371362 L12.8359712,21.5920899 C12.8359712,21.8773852 12.837848,22.2114758 12.8416018,22.5943722 C12.8453557,22.9772685 12.8472325,23.1799752 12.8472325,23.2024985 C12.8472325,23.3376383 12.7984329,23.4502534 12.7008318,23.5403465 C12.6032309,23.6304399 12.4530776,23.6567165 12.2503679,23.6191777 C10.5085652,23.0410794 9.08774076,21.9993919 7.9878526,20.4940838 C6.88796418,18.988776 6.33802817,17.2939222 6.33802817,15.4094717 C6.33802817,13.8403477 6.72467261,12.3932466 7.49797284,11.0681252 C8.27127332,9.74300357 9.32046836,8.69380853 10.64559,7.92050805 C11.9707114,7.14720782 13.4178125,6.76056338 14.9869365,6.76056338 C16.5560605,6.76056338 18.0031616,7.14720782 19.3282832,7.92050805 C20.6534046,8.69380853 21.7025999,9.74300357 22.4759001,11.0681252 C23.2492006,12.3932466 23.635845,13.8403477 23.635845,15.4094717 L23.635845,15.4094717 Z" id="Shape"></path>
                    </g>
                </g>
            </g>
        </g>
    </g>
</svg>