<?xml version="1.0" encoding="UTF-8"?>
<svg width="18px" height="18px" viewBox="0 0 18 18" version="1.1" xmlns="http://www.w3.org/2000/svg" xmlns:xlink="http://www.w3.org/1999/xlink">
    <!-- Generator: Sketch 40.3 (33839) - http://www.bohemiancoding.com/sketch -->
    <title>Shape</title>
    <desc>Created with Sketch.</desc>
    <defs></defs>
    <g id="Welcome" stroke="none" stroke-width="1" fill="none" fill-rule="evenodd">
        <g id="Desktop-HD" transform="translate(-871.000000, -6203.000000)" fill="#FFFFFF">
            <g id="Footer" transform="translate(0.000000, 6052.000000)">
                <g id="Group" transform="translate(815.000000, 145.000000)">
                    <g id="f0e1" transform="translate(50.000000, 0.000000)">
                        <path d="M10.3278763,12.213737 L10.3278763,23.5430766 L6.55524046,23.5430766 L6.55524046,12.213737 L10.3278763,12.213737 Z M10.5679531,8.71547478 C10.5755746,9.27184584 10.3831342,9.73675211 9.99062561,10.1102067 C9.59811703,10.4836615 9.08176645,10.6703859 8.44155851,10.6703859 L8.41869398,10.6703859 C7.79372907,10.6703859 7.29071601,10.4836615 6.90963969,10.1102067 C6.52856338,9.73675211 6.33802817,9.27184584 6.33802817,8.71547478 C6.33802817,8.15148195 6.53427939,7.68467042 6.92678796,7.31502663 C7.31929654,6.94538259 7.83183636,6.76056338 8.46442279,6.76056338 C9.09700948,6.76056338 9.60383329,6.94538259 9.98490935,7.31502663 C10.3659857,7.68467042 10.5603316,8.15148195 10.5679531,8.71547478 L10.5679531,8.71547478 Z M23.8979332,17.04957 L23.8979332,23.5430766 L20.1367296,23.5430766 L20.1367296,17.4839949 C20.1367296,16.6837347 19.9823959,16.0568738 19.6737242,15.6033931 C19.3650525,15.1499124 18.8829982,14.9231754 18.227547,14.9231754 C17.747391,14.9231754 17.3453616,15.0546448 17.0214469,15.3175875 C16.6975321,15.5805298 16.4555524,15.9063452 16.2955004,16.295043 C16.2116635,16.5236886 16.1697457,16.832356 16.1697457,17.2210535 L16.1697457,23.5430766 L12.4085421,23.5430766 C12.4237851,20.5020883 12.4314067,18.0365621 12.4314067,16.1464241 C12.4314067,14.2562858 12.4275959,13.1283173 12.4199744,12.762484 L12.4085421,12.213737 L16.1697457,12.213737 L16.1697457,13.859978 L16.1468812,13.859978 C16.2993117,13.6160894 16.4555506,13.4026899 16.6156028,13.2197731 C16.7756548,13.0368566 16.9909595,12.8386999 17.2615237,12.6252973 C17.5320878,12.4118945 17.8636192,12.2461288 18.2561278,12.1279951 C18.6486361,12.0098617 19.0849618,11.9507956 19.5651181,11.9507956 C20.8683987,11.9507956 21.9163426,12.3833106 22.708981,13.2483536 C23.5016197,14.1133969 23.8979332,15.3804563 23.8979332,17.04957 L23.8979332,17.04957 Z" id="Shape"></path>
                    </g>
                </g>
            </g>
        </g>
    </g>
</svg>