<?xml version="1.0" encoding="UTF-8"?>
<svg width="394px" height="86px" viewBox="0 0 394 86" version="1.1" xmlns="http://www.w3.org/2000/svg" xmlns:xlink="http://www.w3.org/1999/xlink">
    <!-- Generator: Sketch 41.1 (35376) - http://www.bohemiancoding.com/sketch -->
    <title>adventur</title>
    <desc>Created with Sketch.</desc>
    <defs></defs>
    <g id="Page-1" stroke="none" stroke-width="1" fill="none" fill-rule="evenodd">
        <path d="M37.1315661,34.7500913 L48.1155111,34.7500913 L48.1155111,82.087978 L37.1315661,82.087978 L37.1315661,77.1306223 C32.6278022,81.3427756 27.7838985,83.4488207 22.5997097,83.4488207 C16.0546715,83.4488207 10.6437557,81.0835701 6.36679995,76.3529979 C2.12224543,71.5252221 0,65.4986931 0,58.2732301 C0,51.1773717 2.12224543,45.2642452 6.36679995,40.533673 C10.6113545,35.8031007 15.9250682,33.4378501 22.3081006,33.4378501 C27.8163011,33.4378501 32.7574069,35.7058987 37.1315661,40.2420638 L37.1315661,34.7500913 Z M11.1783511,58.2732301 C11.1783511,62.8093952 12.3933771,66.5030743 14.8234655,69.3543781 C17.3183564,72.2380831 20.4612236,73.6799139 24.2521616,73.6799139 C28.3023091,73.6799139 31.5747791,72.2866841 34.06967,69.5001827 C36.5645608,66.6164777 37.8119875,62.9551993 37.8119875,58.5162377 C37.8119875,54.0772761 36.5645608,50.4159977 34.06967,47.5322928 C31.5747791,44.7133901 28.3347098,43.30396 24.3493647,43.30396 C20.5908279,43.30396 17.4479606,44.7295905 14.9206686,47.5808943 C12.4257778,50.4645993 11.1783511,54.0286755 11.1783511,58.2732301 Z M96.8142405,0 L107.798185,0 L107.798185,82.087978 L96.8142405,82.087978 L96.8142405,77.1306223 C92.5048836,81.3427756 87.6285792,83.4488207 82.185181,83.4488207 C75.7049451,83.4488207 70.32643,81.0835701 66.0494743,76.3529979 C61.8049198,71.5252221 59.6826743,65.4986931 59.6826743,58.2732301 C59.6826743,51.2097729 61.8049198,45.3128467 66.0494743,40.5822745 C70.2616276,35.8193011 75.559141,33.4378501 81.9421734,33.4378501 C87.4827751,33.4378501 92.4400812,35.7058987 96.8142405,40.2420638 L96.8142405,0 Z M70.8610254,58.2732301 C70.8610254,62.8093952 72.0760514,66.5030743 74.5061399,69.3543781 C77.0010307,72.2380831 80.143898,73.6799139 83.934836,73.6799139 C87.9849834,73.6799139 91.2574535,72.2866841 93.7523443,69.5001827 C96.2472351,66.6164777 97.4946618,62.9551993 97.4946618,58.5162377 C97.4946618,54.0772761 96.2472351,50.4159977 93.7523443,47.5322928 C91.2574535,44.7133901 88.0173841,43.30396 84.032039,43.30396 C80.2735022,43.30396 77.1306349,44.7295905 74.6033429,47.5808943 C72.1084521,50.4645993 70.8610254,54.0286755 70.8610254,58.2732301 Z M127.481804,34.7500913 L139.729388,61.3351262 L151.928371,34.7500913 L164.224557,34.7500913 L139.632185,85.3442802 L115.234219,34.7500913 L127.481804,34.7500913 Z M214.721543,60.9949155 L180.797678,60.9949155 C181.089289,64.8830571 182.352916,67.9773233 184.588597,70.2778071 C186.824278,72.5458896 189.69174,73.6799139 193.191067,73.6799139 C195.912766,73.6799139 198.164614,73.0319 199.946679,71.7358529 C201.696343,70.4398057 203.688986,68.0421544 205.924667,64.542827 L215.158957,69.6945888 C213.733305,72.1246772 212.226673,74.2064218 210.639015,75.9398849 C209.051357,77.673348 207.350321,79.0989785 205.535855,80.2168192 C203.721389,81.3346599 201.761147,82.1527774 199.65507,82.6711963 C197.548993,83.1896152 195.264745,83.4488207 192.802255,83.4488207 C185.738798,83.4488207 180.068676,81.1807722 175.791721,76.644607 C171.514765,72.0760407 169.376319,66.017111 169.376319,58.4676362 C169.376319,50.9829637 171.449964,44.924034 175.597315,40.2906653 C179.777067,35.722099 185.317585,33.4378501 192.219037,33.4378501 C199.18529,33.4378501 204.693408,35.6572976 208.743556,40.0962592 C212.761302,44.5028196 214.770145,50.6103504 214.770145,58.4190346 L214.721543,60.9949155 Z M203.494591,52.0522347 C201.971735,46.2200224 198.294257,43.30396 192.462044,43.30396 C191.133596,43.30396 189.886169,43.5064643 188.719727,43.911479 C187.553284,44.3164938 186.492162,44.8997063 185.536327,45.661134 C184.580492,46.4225617 183.762374,47.3378813 183.08195,48.4071202 C182.401525,49.4763592 181.883114,50.6913852 181.526701,52.0522347 L203.494591,52.0522347 Z M226.677519,34.7500913 L237.661464,34.7500913 L237.661464,39.1242287 C241.484803,35.3332907 245.794095,33.4378501 250.58947,33.4378501 C256.09767,33.4378501 260.390762,35.1712872 263.468874,38.6382134 C266.125771,41.5867208 267.454199,46.3982238 267.454199,53.0728668 L267.454199,82.087978 L256.470254,82.087978 L256.470254,55.6487476 C256.470254,50.9829778 255.822241,47.7591088 254.526193,45.9770439 C253.262547,44.1625779 250.962098,43.2553584 247.624777,43.2553584 C243.995845,43.2553584 241.419989,44.4541841 239.897134,46.8518714 C238.40668,49.2171575 237.661464,53.3482459 237.661464,59.2452606 L237.661464,82.087978 L226.677519,82.087978 L226.677519,34.7500913 Z M292.532587,44.9564119 L292.532587,82.087978 L281.597244,82.087978 L281.597244,44.9564119 L276.931497,44.9564119 L276.931497,34.7500913 L281.597244,34.7500913 L281.597244,17.3993464 L292.532587,17.3993464 L292.532587,34.7500913 L301.037854,34.7500913 L301.037854,44.9564119 L292.532587,44.9564119 Z M319.409231,34.7500913 L319.409231,61.9183445 C319.409231,69.75943 322.503497,73.6799139 328.692123,73.6799139 C334.880748,73.6799139 337.975014,69.75943 337.975014,61.9183445 L337.975014,34.7500913 L348.910358,34.7500913 L348.910358,62.1613522 C348.910358,65.9522902 348.440547,69.2247602 347.500913,71.9788605 C346.59368,74.4413501 345.022247,76.6607977 342.786565,78.6372696 C339.092831,81.8449864 334.39473,83.4488207 328.692123,83.4488207 C323.021916,83.4488207 318.340016,81.8449864 314.646281,78.6372696 C312.378199,76.6607977 310.774365,74.4413501 309.83473,71.9788605 C308.927497,69.7755803 308.473888,66.5031102 308.473888,62.1613522 L308.473888,34.7500913 L319.409231,34.7500913 Z M362.713191,34.7500913 L373.648534,34.7500913 L373.648534,38.9784241 C375.657408,36.8723474 377.439446,35.4305166 378.994702,34.6528883 C380.58236,33.8428588 382.4616,33.4378501 384.632479,33.4378501 C387.516184,33.4378501 390.529449,34.3774702 393.672363,36.2567386 L388.666406,46.2686531 C386.592731,44.7781988 384.567687,44.0329829 382.591215,44.0329829 C376.629398,44.0329829 373.648534,48.5366793 373.648534,57.5442072 L373.648534,82.087978 L362.713191,82.087978 L362.713191,34.7500913 Z" id="adventur" fill="#000000"></path>
    </g>
</svg>