<?xml version="1.0" encoding="UTF-8"?>
<svg width="112px" height="141px" viewBox="0 0 112 141" version="1.1" xmlns="http://www.w3.org/2000/svg" xmlns:xlink="http://www.w3.org/1999/xlink">
    <!-- Generator: Sketch 40.3 (33839) - http://www.bohemiancoding.com/sketch -->
    <title>bookIcon</title>
    <desc>Created with Sketch.</desc>
    <defs></defs>
    <g id="Page-1" stroke="none" stroke-width="1" fill="none" fill-rule="evenodd">
        <path d="M90.987,55.284 C90.987,55.824 90.548,56.263 90.008,56.263 L34.346,56.263 C33.806,56.263 33.367,55.824 33.367,55.284 L33.367,31.327 C33.367,30.787 33.806,30.347 34.346,30.347 L90.008,30.347 C90.548,30.347 90.987,30.787 90.987,31.327 L90.987,55.284 Z M90.008,28.389 L34.346,28.389 C32.726,28.389 31.408,29.707 31.408,31.327 L31.408,55.284 C31.408,56.904 32.726,58.222 34.346,58.222 L90.008,58.222 C91.628,58.222 92.945,56.904 92.945,55.284 L92.945,31.327 C92.945,29.707 91.628,28.389 90.008,28.389 L90.008,28.389 Z M109.579,111.035 L11.652,111.035 L11.652,1.958 L108.892,1.958 C109.433,1.958 109.874,2.394 109.874,2.927 L109.579,111.035 Z M101.812,130.486 L44.525,130.486 L44.525,124.239 L104.254,124.239 L104.4,124.229 C106.786,123.876 108.456,122.467 109.582,121.008 L109.583,122.715 C109.583,128.654 107.751,130.486 101.812,130.486 L101.812,130.486 Z M11.652,122.239 C11.1,122.239 10.652,122.687 10.652,123.239 C10.652,123.792 11.1,124.239 11.652,124.239 L24.941,124.239 L24.941,130.486 L12.729,130.486 C6.79,130.486 1.958,128.654 1.958,122.715 L1.958,122.453 C2.07,119.702 2.932,117.423 4.486,115.813 C6.291,113.942 9.04,112.993 12.655,112.993 L109.576,112.993 L109.579,116.856 C109.307,117.651 107.765,121.661 104.178,122.239 L11.652,122.239 Z M26.942,130.486 L42.525,130.486 L42.525,124.717 L26.942,124.717 L26.942,130.486 Z M42.525,137.272 L35.469,132.6 C35.407,132.533 35.327,132.492 35.252,132.444 L42.525,132.444 L42.525,137.272 Z M33.997,132.6 L26.941,137.272 L26.941,132.444 L34.214,132.444 C34.138,132.492 34.058,132.533 33.997,132.6 L33.997,132.6 Z M1.958,12.384 C1.958,3.891 8.7,2.175 9.694,1.969 L9.694,111.26 C6.926,111.693 4.717,112.753 3.076,114.454 C2.658,114.887 2.293,115.369 1.958,115.874 L1.958,12.384 Z M111.535,112.014 L111.534,112.014 L111.832,2.929 C111.832,1.314 110.513,0 108.892,0 L9.694,0 L9.694,0.02 C9.626,0.017 9.561,0.002 9.491,0.013 C9.396,0.029 7.10542736e-15,1.724 7.10542736e-15,12.384 L7.10542736e-15,122.715 C7.10542736e-15,129.734 5.71,132.444 12.729,132.444 L24.941,132.444 L24.941,139.836 C24.941,140.248 25.194,140.618 25.578,140.768 C25.962,140.916 26.398,140.816 26.677,140.513 L34.733,134.754 L42.789,140.513 C42.982,140.723 43.25,140.836 43.525,140.836 C43.647,140.836 43.77,140.814 43.888,140.768 C44.272,140.618 44.525,140.248 44.525,139.836 L44.525,132.444 L101.812,132.444 C108.831,132.444 111.541,129.734 111.541,122.715 L111.538,117.301 C111.54,117.295 111.545,117.279 111.546,117.275 C111.599,117.094 111.583,116.914 111.538,116.744 L111.535,112.014 Z" id="bookIcon" fill="#00B4F1"></path>
    </g>
</svg>