<?xml version="1.0" encoding="UTF-8" standalone="no"?>
<svg width="190px" height="176px" viewBox="0 0 190 176" version="1.1" xmlns="http://www.w3.org/2000/svg" xmlns:xlink="http://www.w3.org/1999/xlink">
    <!-- Generator: Sketch 40.1 (33804) - http://www.bohemiancoding.com/sketch -->
    <title>Map Icon</title>
    <desc>Created with Sketch.</desc>
    <defs>
        <path d="M89.6225906,4.05489688 L47.9279279,31.1783308 L0.840760849,0.546936223 C0.37102172,0.241359024 0,0.449045419 0,1.00297102 L0,141.132622 C0,141.689179 0.365383155,142.392907 0.816106119,142.710321 L43.1211047,172.502875 L47.883631,175.754158 L53.7076714,171.680798 L53.6862528,171.717933 L94.1441441,143.336373 L138.648649,174.556667 L138.648649,174.615847 L140.316063,175.754158 L146.140104,171.680798 L146.118685,171.717933 L186.882631,143.121673 C187.658954,142.577076 188.297498,141.370864 188.308704,140.440325 L189.979584,1.69526727 C189.99086,0.758997008 189.350729,0.408288205 188.545872,0.914415529 L140.389372,31.1972039 L98.9617117,4.2474615 L99.0060781,4.32033792 L96.4596208,2.61978805 L95.8558559,2.22702363 L95.8558559,2.21658768 L94.254574,1.1472355 L89.6225906,4.05489688 Z" id="path-1"></path>
        <mask id="mask-2" maskContentUnits="userSpaceOnUse" maskUnits="objectBoundingBox" x="0" y="0" width="189.979731" height="175.348429" fill="white">
            <use xlink:href="#path-1"></use>
        </mask>
    </defs>
    <g id="Welcome" stroke="none" stroke-width="1" fill="none" fill-rule="evenodd" stroke-linecap="round">
        <g id="Desktop-HD" transform="translate(-625.000000, -1016.000000)" stroke="#00B4F1">
            <g id="Map-Icon" transform="translate(625.000000, 1016.000000)">
                <use id="Combined-Shape" mask="url(#mask-2)" stroke-width="4" stroke-linejoin="round" xlink:href="#path-1"></use>
                <path d="M47.9279279,170.315315 L47.9279279,34.2342342" id="Line" stroke-width="2"></path>
                <path d="M94.1441441,139.504505 L94.1441441,5.13513514" id="Line" stroke-width="2"></path>
                <path d="M140.36036,170.315315 L140.36036,34.2342342" id="Line" stroke-width="2"></path>
                <path d="M14.5495495,117.252252 C14.5495495,117.252252 28.2704737,78.3266303 46.1025479,76.0976211 C63.934622,73.8686118 77.5129028,108.290806 93.1829779,112.322724 C108.853053,116.354642 125.601407,73.8688632 141.298124,70.0765414 C156.994842,66.2842196 178.873874,96.7117117 178.873874,96.7117117" id="Line" stroke-width="3" stroke-dasharray="9,8"></path>
                <path d="M79.5945946,48.7837838 L64.1891892,62.4774775" id="Line" stroke-width="3"></path>
                <path d="M79.5945946,48.7837838 L64.1891892,62.4774775" id="Line" stroke-width="3" transform="translate(71.891892, 55.630631) scale(-1, 1) translate(-71.891892, -55.630631) "></path>
                <path d="M170.315315,124.099099 L154.90991,137.792793" id="Line" stroke-width="3"></path>
                <path d="M170.315315,124.099099 L154.90991,137.792793" id="Line" stroke-width="3" transform="translate(162.612613, 130.945946) scale(-1, 1) translate(-162.612613, -130.945946) "></path>
            </g>
        </g>
    </g>
</svg>