<?xml version="1.0" encoding="UTF-8"?>
<svg width="22px" height="18px" viewBox="0 0 22 18" version="1.1" xmlns="http://www.w3.org/2000/svg" xmlns:xlink="http://www.w3.org/1999/xlink">
    <!-- Generator: Sketch 40.3 (33839) - http://www.bohemiancoding.com/sketch -->
    <title>Shape</title>
    <desc>Created with Sketch.</desc>
    <defs></defs>
    <g id="Welcome" stroke="none" stroke-width="1" fill="none" fill-rule="evenodd">
        <g id="Desktop-HD" transform="translate(-819.000000, -6203.000000)" fill="#FFFFFF">
            <g id="Footer" transform="translate(0.000000, 6052.000000)">
                <g id="Group" transform="translate(815.000000, 145.000000)">
                    <g id="e094">
                        <path d="M24.8808234,7.08559047 C24.0411659,7.57313343 23.1338078,7.91170011 22.1587216,8.10130011 C21.319064,7.2074712 20.2762793,6.76056338 19.0303359,6.76056338 C17.8656497,6.76056338 16.8634929,7.18038579 16.0238353,8.02004334 C15.1841778,8.85970089 14.7643554,9.86185768 14.7643554,11.0265439 C14.7643554,11.3515725 14.8049832,11.6765965 14.8862405,12.0016251 C13.1527541,11.9203678 11.5208635,11.4870027 9.99052004,10.7015168 C8.46017655,9.91603086 7.16685244,8.85970323 6.11050921,7.53250271 C5.70422327,8.18256 5.50108342,8.90032121 5.50108342,9.68580715 C5.50108342,11.2026077 6.13758839,12.3808192 7.41061755,13.2204767 C6.73347432,13.2204767 6.09696936,13.044422 5.50108342,12.6923077 L5.50108342,12.7735645 C5.50108342,13.7757363 5.8193359,14.669552 6.45585049,15.4550379 C7.09236507,16.2405239 7.91169595,16.7416025 8.91386782,16.9582882 C8.53466756,17.0395455 8.15547328,17.0801733 7.77627302,17.0801733 C7.50541573,17.0801733 7.2345626,17.0530879 6.96370531,16.9989166 C7.26164828,17.8656598 7.76949816,18.5766495 8.48726977,19.1319068 C9.20504139,19.6871641 10.0243725,19.9647887 10.9452871,19.9647887 C9.40140065,21.1836463 7.64085504,21.7930661 5.66359697,21.7930661 C5.33856832,21.7930661 5.00000165,21.7795234 4.64788732,21.7524377 C6.65223107,23.0254669 8.83259935,23.6619718 11.1890574,23.6619718 C13.0850582,23.6619718 14.8185187,23.29632 16.3894908,22.5650054 C17.9604629,21.8336908 19.2402443,20.8789334 20.2288732,19.7007042 C21.2175021,18.5224751 21.9826624,17.2223797 22.524377,15.8003792 C23.0660916,14.3783787 23.3369447,12.949628 23.3369447,11.5140845 L23.3369447,10.9859155 C24.1766023,10.3629439 24.8808205,9.61809751 25.4496208,8.75135428 C24.6641349,9.1034686 23.8515752,9.33369387 23.0119177,9.44203684 C23.9328322,8.87323658 24.5557948,8.08776234 24.8808234,7.08559047 L24.8808234,7.08559047 Z" id="Shape"></path>
                    </g>
                </g>
            </g>
        </g>
    </g>
</svg>